<?xml version="1.0" encoding="utf-8" standalone="no"?>
<!DOCTYPE svg PUBLIC "-//W3C//DTD SVG 1.1//EN"
  "http://www.w3.org/Graphics/SVG/1.1/DTD/svg11.dtd">
<svg xmlns:xlink="http://www.w3.org/1999/xlink" width="353.944531pt" height="353.154531pt" viewBox="0 0 353.944531 353.154531" xmlns="http://www.w3.org/2000/svg" version="1.1">
 <metadata>
  <rdf:RDF xmlns:dc="http://purl.org/dc/elements/1.1/" xmlns:cc="http://creativecommons.org/ns#" xmlns:rdf="http://www.w3.org/1999/02/22-rdf-syntax-ns#">
   <cc:Work>
    <dc:type rdf:resource="http://purl.org/dc/dcmitype/StillImage"/>
    <dc:date>2026-07-23T15:50:07.705340</dc:date>
    <dc:format>image/svg+xml</dc:format>
    <dc:creator>
     <cc:Agent>
      <dc:title>Matplotlib v3.10.3, https://matplotlib.org/</dc:title>
     </cc:Agent>
    </dc:creator>
   </cc:Work>
  </rdf:RDF>
 </metadata>
 <defs>
  <style type="text/css">*{stroke-linejoin: round; stroke-linecap: butt}</style>
 </defs>
 <g id="figure_1">
  <g id="patch_1">
   <path d="M 0 353.154531 
L 353.944531 353.154531 
L 353.944531 0 
L 0 0 
z
" style="fill: #ffffff"/>
  </g>
  <g id="axes_1">
   <g id="patch_2">
    <path d="M 52.704531 315.598281 
L 346.744531 315.598281 
L 346.744531 21.558281 
L 52.704531 21.558281 
z
" style="fill: #ffffff"/>
   </g>
   <g id="patch_3">
    <path d="M 52.704531 315.598281 
L 346.744531 315.598281 
L 346.744531 152.057426 
L 52.704531 152.057426 
z
" clip-path="url(#pf0a48c02ad)" style="fill: #e74c3c; opacity: 0.08; stroke: #e74c3c; stroke-linejoin: miter"/>
   </g>
   <g id="line2d_1">
    <path d="M 52.704531 152.057426 
L 346.744531 152.057426 
" clip-path="url(#pf0a48c02ad)" style="fill: none; stroke-dasharray: 4.44,1.92; stroke-dashoffset: 0; stroke: #e74c3c; stroke-opacity: 0.9; stroke-width: 1.2"/>
   </g>
   <g id="line2d_2">
    <path d="M 52.704531 315.598281 
L 346.744531 21.558281 
" clip-path="url(#pf0a48c02ad)" style="fill: none; stroke-dasharray: 0.9,1.485; stroke-dashoffset: 0; stroke: #808080; stroke-opacity: 0.6; stroke-width: 0.9"/>
   </g>
   <g id="matplotlib.axis_1">
    <g id="xtick_1">
     <g id="line2d_3">
      <defs>
       <path id="m1460691688" d="M 0 0 
L 0 3.5 
" style="stroke: #000000; stroke-width: 0.8"/>
      </defs>
      <g>
       <use xlink:href="#m1460691688" x="52.704531" y="315.598281" style="stroke: #000000; stroke-width: 0.8"/>
      </g>
     </g>
     <g id="text_1">
      <!-- −0.2 -->
      <g transform="translate(41.777266 329.436875) scale(0.09 -0.09)">
       <defs>
        <path id="DejaVuSerif-2212" d="M 678 2259 
L 4684 2259 
L 4684 1753 
L 678 1753 
L 678 2259 
z
" transform="scale(0.015625)"/>
        <path id="DejaVuSerif-30" d="M 2034 219 
Q 2513 219 2750 744 
Q 2988 1269 2988 2328 
Q 2988 3391 2750 3916 
Q 2513 4441 2034 4441 
Q 1556 4441 1318 3916 
Q 1081 3391 1081 2328 
Q 1081 1269 1318 744 
Q 1556 219 2034 219 
z
M 2034 -91 
Q 1275 -91 848 546 
Q 422 1184 422 2328 
Q 422 3475 848 4112 
Q 1275 4750 2034 4750 
Q 2797 4750 3222 4112 
Q 3647 3475 3647 2328 
Q 3647 1184 3222 546 
Q 2797 -91 2034 -91 
z
" transform="scale(0.015625)"/>
        <path id="DejaVuSerif-2e" d="M 603 325 
Q 603 500 722 622 
Q 841 744 1019 744 
Q 1191 744 1312 622 
Q 1434 500 1434 325 
Q 1434 153 1312 31 
Q 1191 -91 1019 -91 
Q 841 -91 722 29 
Q 603 150 603 325 
z
" transform="scale(0.015625)"/>
        <path id="DejaVuSerif-32" d="M 819 3553 
L 469 3553 
L 469 4384 
Q 803 4563 1142 4656 
Q 1481 4750 1806 4750 
Q 2534 4750 2956 4397 
Q 3378 4044 3378 3438 
Q 3378 2753 2422 1800 
Q 2347 1728 2309 1691 
L 1131 513 
L 3078 513 
L 3078 1088 
L 3444 1088 
L 3444 0 
L 434 0 
L 434 341 
L 1850 1753 
Q 2319 2222 2519 2614 
Q 2719 3006 2719 3438 
Q 2719 3909 2473 4175 
Q 2228 4441 1797 4441 
Q 1350 4441 1106 4219 
Q 863 3997 819 3553 
z
" transform="scale(0.015625)"/>
       </defs>
       <use xlink:href="#DejaVuSerif-2212"/>
       <use xlink:href="#DejaVuSerif-30" transform="translate(83.789062 0)"/>
       <use xlink:href="#DejaVuSerif-2e" transform="translate(147.412109 0)"/>
       <use xlink:href="#DejaVuSerif-32" transform="translate(179.199219 0)"/>
      </g>
     </g>
    </g>
    <g id="xtick_2">
     <g id="line2d_4">
      <g>
       <use xlink:href="#m1460691688" x="99.750931" y="315.598281" style="stroke: #000000; stroke-width: 0.8"/>
      </g>
     </g>
     <g id="text_2">
      <!-- 0.0 -->
      <g transform="translate(92.594525 329.436875) scale(0.09 -0.09)">
       <use xlink:href="#DejaVuSerif-30"/>
       <use xlink:href="#DejaVuSerif-2e" transform="translate(63.623047 0)"/>
       <use xlink:href="#DejaVuSerif-30" transform="translate(95.410156 0)"/>
      </g>
     </g>
    </g>
    <g id="xtick_3">
     <g id="line2d_5">
      <g>
       <use xlink:href="#m1460691688" x="146.797331" y="315.598281" style="stroke: #000000; stroke-width: 0.8"/>
      </g>
     </g>
     <g id="text_3">
      <!-- 0.2 -->
      <g transform="translate(139.640925 329.436875) scale(0.09 -0.09)">
       <use xlink:href="#DejaVuSerif-30"/>
       <use xlink:href="#DejaVuSerif-2e" transform="translate(63.623047 0)"/>
       <use xlink:href="#DejaVuSerif-32" transform="translate(95.410156 0)"/>
      </g>
     </g>
    </g>
    <g id="xtick_4">
     <g id="line2d_6">
      <g>
       <use xlink:href="#m1460691688" x="193.843731" y="315.598281" style="stroke: #000000; stroke-width: 0.8"/>
      </g>
     </g>
     <g id="text_4">
      <!-- 0.4 -->
      <g transform="translate(186.687325 329.436875) scale(0.09 -0.09)">
       <defs>
        <path id="DejaVuSerif-34" d="M 2234 1581 
L 2234 4063 
L 641 1581 
L 2234 1581 
z
M 3609 0 
L 1484 0 
L 1484 331 
L 2234 331 
L 2234 1247 
L 197 1247 
L 197 1588 
L 2241 4750 
L 2859 4750 
L 2859 1581 
L 3750 1581 
L 3750 1247 
L 2859 1247 
L 2859 331 
L 3609 331 
L 3609 0 
z
" transform="scale(0.015625)"/>
       </defs>
       <use xlink:href="#DejaVuSerif-30"/>
       <use xlink:href="#DejaVuSerif-2e" transform="translate(63.623047 0)"/>
       <use xlink:href="#DejaVuSerif-34" transform="translate(95.410156 0)"/>
      </g>
     </g>
    </g>
    <g id="xtick_5">
     <g id="line2d_7">
      <g>
       <use xlink:href="#m1460691688" x="240.890131" y="315.598281" style="stroke: #000000; stroke-width: 0.8"/>
      </g>
     </g>
     <g id="text_5">
      <!-- 0.6 -->
      <g transform="translate(233.733725 329.436875) scale(0.09 -0.09)">
       <defs>
        <path id="DejaVuSerif-36" d="M 2094 219 
Q 2534 219 2771 542 
Q 3009 866 3009 1472 
Q 3009 2078 2771 2401 
Q 2534 2725 2094 2725 
Q 1647 2725 1412 2412 
Q 1178 2100 1178 1509 
Q 1178 888 1415 553 
Q 1653 219 2094 219 
z
M 1075 2569 
Q 1288 2803 1556 2918 
Q 1825 3034 2163 3034 
Q 2859 3034 3264 2615 
Q 3669 2197 3669 1472 
Q 3669 763 3233 336 
Q 2797 -91 2069 -91 
Q 1278 -91 853 498 
Q 428 1088 428 2181 
Q 428 3406 931 4078 
Q 1434 4750 2350 4750 
Q 2597 4750 2869 4703 
Q 3141 4656 3425 4563 
L 3425 3794 
L 3072 3794 
Q 3034 4109 2831 4275 
Q 2628 4441 2284 4441 
Q 1678 4441 1381 3981 
Q 1084 3522 1075 2569 
z
" transform="scale(0.015625)"/>
       </defs>
       <use xlink:href="#DejaVuSerif-30"/>
       <use xlink:href="#DejaVuSerif-2e" transform="translate(63.623047 0)"/>
       <use xlink:href="#DejaVuSerif-36" transform="translate(95.410156 0)"/>
      </g>
     </g>
    </g>
    <g id="xtick_6">
     <g id="line2d_8">
      <g>
       <use xlink:href="#m1460691688" x="287.936531" y="315.598281" style="stroke: #000000; stroke-width: 0.8"/>
      </g>
     </g>
     <g id="text_6">
      <!-- 0.8 -->
      <g transform="translate(280.780125 329.436875) scale(0.09 -0.09)">
       <defs>
        <path id="DejaVuSerif-38" d="M 2981 1275 
Q 2981 1775 2732 2051 
Q 2484 2328 2034 2328 
Q 1584 2328 1336 2051 
Q 1088 1775 1088 1275 
Q 1088 772 1336 495 
Q 1584 219 2034 219 
Q 2484 219 2732 495 
Q 2981 772 2981 1275 
z
M 2853 3541 
Q 2853 3966 2637 4203 
Q 2422 4441 2034 4441 
Q 1650 4441 1433 4203 
Q 1216 3966 1216 3541 
Q 1216 3113 1433 2875 
Q 1650 2638 2034 2638 
Q 2422 2638 2637 2875 
Q 2853 3113 2853 3541 
z
M 2516 2484 
Q 3047 2413 3344 2092 
Q 3641 1772 3641 1275 
Q 3641 619 3225 264 
Q 2809 -91 2034 -91 
Q 1263 -91 845 264 
Q 428 619 428 1275 
Q 428 1772 725 2092 
Q 1022 2413 1556 2484 
Q 1084 2569 832 2842 
Q 581 3116 581 3541 
Q 581 4103 968 4426 
Q 1356 4750 2034 4750 
Q 2713 4750 3100 4426 
Q 3488 4103 3488 3541 
Q 3488 3116 3236 2842 
Q 2984 2569 2516 2484 
z
" transform="scale(0.015625)"/>
       </defs>
       <use xlink:href="#DejaVuSerif-30"/>
       <use xlink:href="#DejaVuSerif-2e" transform="translate(63.623047 0)"/>
       <use xlink:href="#DejaVuSerif-38" transform="translate(95.410156 0)"/>
      </g>
     </g>
    </g>
    <g id="xtick_7">
     <g id="line2d_9">
      <g>
       <use xlink:href="#m1460691688" x="334.982931" y="315.598281" style="stroke: #000000; stroke-width: 0.8"/>
      </g>
     </g>
     <g id="text_7">
      <!-- 1.0 -->
      <g transform="translate(327.826525 329.436875) scale(0.09 -0.09)">
       <defs>
        <path id="DejaVuSerif-31" d="M 909 0 
L 909 331 
L 1722 331 
L 1722 4213 
L 781 3603 
L 781 4013 
L 1919 4750 
L 2350 4750 
L 2350 331 
L 3163 331 
L 3163 0 
L 909 0 
z
" transform="scale(0.015625)"/>
       </defs>
       <use xlink:href="#DejaVuSerif-31"/>
       <use xlink:href="#DejaVuSerif-2e" transform="translate(63.623047 0)"/>
       <use xlink:href="#DejaVuSerif-30" transform="translate(95.410156 0)"/>
      </g>
     </g>
    </g>
    <g id="text_8">
     <!-- GT mIoU -->
     <g transform="translate(174.579219 343.666875) scale(0.11 -0.11)">
      <defs>
       <path id="DejaVuSerif-47" d="M 4097 3272 
Q 3988 3856 3641 4136 
Q 3294 4416 2675 4416 
Q 1869 4416 1472 3897 
Q 1075 3378 1075 2328 
Q 1075 1300 1484 772 
Q 1894 244 2688 244 
Q 3041 244 3362 331 
Q 3684 419 3975 594 
L 3975 1797 
L 3097 1797 
L 3097 2131 
L 4609 2131 
L 4609 391 
Q 4194 150 3714 29 
Q 3234 -91 2688 -91 
Q 1631 -91 995 570 
Q 359 1231 359 2328 
Q 359 3434 996 4092 
Q 1634 4750 2713 4750 
Q 3113 4750 3539 4658 
Q 3966 4566 4447 4378 
L 4447 3272 
L 4097 3272 
z
" transform="scale(0.015625)"/>
       <path id="DejaVuSerif-54" d="M 1222 0 
L 1222 331 
L 1819 331 
L 1819 4294 
L 447 4294 
L 447 3566 
L 63 3566 
L 63 4666 
L 4206 4666 
L 4206 3566 
L 3822 3566 
L 3822 4294 
L 2450 4294 
L 2450 331 
L 3047 331 
L 3047 0 
L 1222 0 
z
" transform="scale(0.015625)"/>
       <path id="DejaVuSerif-20" transform="scale(0.015625)"/>
       <path id="DejaVuSerif-6d" d="M 3316 2675 
Q 3481 3041 3739 3227 
Q 3997 3413 4341 3413 
Q 4863 3413 5119 3089 
Q 5375 2766 5375 2113 
L 5375 331 
L 5894 331 
L 5894 0 
L 4300 0 
L 4300 331 
L 4800 331 
L 4800 2047 
Q 4800 2556 4650 2772 
Q 4500 2988 4153 2988 
Q 3769 2988 3567 2697 
Q 3366 2406 3366 1850 
L 3366 331 
L 3866 331 
L 3866 0 
L 2291 0 
L 2291 331 
L 2791 331 
L 2791 2069 
Q 2791 2566 2641 2777 
Q 2491 2988 2144 2988 
Q 1759 2988 1557 2697 
Q 1356 2406 1356 1850 
L 1356 331 
L 1856 331 
L 1856 0 
L 263 0 
L 263 331 
L 781 331 
L 781 2994 
L 231 2994 
L 231 3322 
L 1356 3322 
L 1356 2731 
Q 1516 3063 1762 3238 
Q 2009 3413 2322 3413 
Q 2709 3413 2968 3220 
Q 3228 3028 3316 2675 
z
" transform="scale(0.015625)"/>
       <path id="DejaVuSerif-49" d="M 1581 331 
L 2175 331 
L 2175 0 
L 353 0 
L 353 331 
L 947 331 
L 947 4331 
L 353 4331 
L 353 4666 
L 2175 4666 
L 2175 4331 
L 1581 4331 
L 1581 331 
z
" transform="scale(0.015625)"/>
       <path id="DejaVuSerif-6f" d="M 1925 219 
Q 2388 219 2623 584 
Q 2859 950 2859 1663 
Q 2859 2375 2623 2739 
Q 2388 3103 1925 3103 
Q 1463 3103 1227 2739 
Q 991 2375 991 1663 
Q 991 950 1228 584 
Q 1466 219 1925 219 
z
M 1925 -91 
Q 1200 -91 759 389 
Q 319 869 319 1663 
Q 319 2456 758 2934 
Q 1197 3413 1925 3413 
Q 2653 3413 3092 2934 
Q 3531 2456 3531 1663 
Q 3531 869 3092 389 
Q 2653 -91 1925 -91 
z
" transform="scale(0.015625)"/>
       <path id="DejaVuSerif-55" d="M 897 4331 
L 300 4331 
L 300 4666 
L 2125 4666 
L 2125 4331 
L 1528 4331 
L 1528 1919 
Q 1528 1025 1820 672 
Q 2113 319 2828 319 
Q 3544 319 3836 672 
Q 4128 1025 4128 1919 
L 4128 4331 
L 3531 4331 
L 3531 4666 
L 5106 4666 
L 5106 4331 
L 4513 4331 
L 4513 1856 
Q 4513 791 4103 350 
Q 3694 -91 2713 -91 
Q 1731 -91 1314 353 
Q 897 797 897 1856 
L 897 4331 
z
" transform="scale(0.015625)"/>
      </defs>
      <use xlink:href="#DejaVuSerif-47"/>
      <use xlink:href="#DejaVuSerif-54" transform="translate(79.882812 0)"/>
      <use xlink:href="#DejaVuSerif-20" transform="translate(146.582031 0)"/>
      <use xlink:href="#DejaVuSerif-6d" transform="translate(178.369141 0)"/>
      <use xlink:href="#DejaVuSerif-49" transform="translate(273.193359 0)"/>
      <use xlink:href="#DejaVuSerif-6f" transform="translate(312.695312 0)"/>
      <use xlink:href="#DejaVuSerif-55" transform="translate(372.900391 0)"/>
     </g>
    </g>
   </g>
   <g id="matplotlib.axis_2">
    <g id="ytick_1">
     <g id="line2d_10">
      <defs>
       <path id="me80cee1720" d="M 0 0 
L -3.5 0 
" style="stroke: #000000; stroke-width: 0.8"/>
      </defs>
      <g>
       <use xlink:href="#me80cee1720" x="52.704531" y="315.598281" style="stroke: #000000; stroke-width: 0.8"/>
      </g>
     </g>
     <g id="text_9">
      <!-- −0.2 -->
      <g transform="translate(23.85 319.017578) scale(0.09 -0.09)">
       <use xlink:href="#DejaVuSerif-2212"/>
       <use xlink:href="#DejaVuSerif-30" transform="translate(83.789062 0)"/>
       <use xlink:href="#DejaVuSerif-2e" transform="translate(147.412109 0)"/>
       <use xlink:href="#DejaVuSerif-32" transform="translate(179.199219 0)"/>
      </g>
     </g>
    </g>
    <g id="ytick_2">
     <g id="line2d_11">
      <g>
       <use xlink:href="#me80cee1720" x="52.704531" y="268.551881" style="stroke: #000000; stroke-width: 0.8"/>
      </g>
     </g>
     <g id="text_10">
      <!-- 0.0 -->
      <g transform="translate(31.391719 271.971178) scale(0.09 -0.09)">
       <use xlink:href="#DejaVuSerif-30"/>
       <use xlink:href="#DejaVuSerif-2e" transform="translate(63.623047 0)"/>
       <use xlink:href="#DejaVuSerif-30" transform="translate(95.410156 0)"/>
      </g>
     </g>
    </g>
    <g id="ytick_3">
     <g id="line2d_12">
      <g>
       <use xlink:href="#me80cee1720" x="52.704531" y="221.505481" style="stroke: #000000; stroke-width: 0.8"/>
      </g>
     </g>
     <g id="text_11">
      <!-- 0.2 -->
      <g transform="translate(31.391719 224.924778) scale(0.09 -0.09)">
       <use xlink:href="#DejaVuSerif-30"/>
       <use xlink:href="#DejaVuSerif-2e" transform="translate(63.623047 0)"/>
       <use xlink:href="#DejaVuSerif-32" transform="translate(95.410156 0)"/>
      </g>
     </g>
    </g>
    <g id="ytick_4">
     <g id="line2d_13">
      <g>
       <use xlink:href="#me80cee1720" x="52.704531" y="174.459081" style="stroke: #000000; stroke-width: 0.8"/>
      </g>
     </g>
     <g id="text_12">
      <!-- 0.4 -->
      <g transform="translate(31.391719 177.878378) scale(0.09 -0.09)">
       <use xlink:href="#DejaVuSerif-30"/>
       <use xlink:href="#DejaVuSerif-2e" transform="translate(63.623047 0)"/>
       <use xlink:href="#DejaVuSerif-34" transform="translate(95.410156 0)"/>
      </g>
     </g>
    </g>
    <g id="ytick_5">
     <g id="line2d_14">
      <g>
       <use xlink:href="#me80cee1720" x="52.704531" y="127.412681" style="stroke: #000000; stroke-width: 0.8"/>
      </g>
     </g>
     <g id="text_13">
      <!-- 0.6 -->
      <g transform="translate(31.391719 130.831978) scale(0.09 -0.09)">
       <use xlink:href="#DejaVuSerif-30"/>
       <use xlink:href="#DejaVuSerif-2e" transform="translate(63.623047 0)"/>
       <use xlink:href="#DejaVuSerif-36" transform="translate(95.410156 0)"/>
      </g>
     </g>
    </g>
    <g id="ytick_6">
     <g id="line2d_15">
      <g>
       <use xlink:href="#me80cee1720" x="52.704531" y="80.366281" style="stroke: #000000; stroke-width: 0.8"/>
      </g>
     </g>
     <g id="text_14">
      <!-- 0.8 -->
      <g transform="translate(31.391719 83.785578) scale(0.09 -0.09)">
       <use xlink:href="#DejaVuSerif-30"/>
       <use xlink:href="#DejaVuSerif-2e" transform="translate(63.623047 0)"/>
       <use xlink:href="#DejaVuSerif-38" transform="translate(95.410156 0)"/>
      </g>
     </g>
    </g>
    <g id="ytick_7">
     <g id="line2d_16">
      <g>
       <use xlink:href="#me80cee1720" x="52.704531" y="33.319881" style="stroke: #000000; stroke-width: 0.8"/>
      </g>
     </g>
     <g id="text_15">
      <!-- 1.0 -->
      <g transform="translate(31.391719 36.739178) scale(0.09 -0.09)">
       <use xlink:href="#DejaVuSerif-31"/>
       <use xlink:href="#DejaVuSerif-2e" transform="translate(63.623047 0)"/>
       <use xlink:href="#DejaVuSerif-30" transform="translate(95.410156 0)"/>
      </g>
     </g>
    </g>
    <g id="text_16">
     <!-- Proxy $\hat{y}$ -->
     <g transform="translate(17.32 189.478281) rotate(-90) scale(0.11 -0.11)">
      <defs>
       <path id="DejaVuSerif-50" d="M 1581 2375 
L 2406 2375 
Q 2872 2375 3115 2626 
Q 3359 2878 3359 3353 
Q 3359 3831 3115 4081 
Q 2872 4331 2406 4331 
L 1581 4331 
L 1581 2375 
z
M 353 0 
L 353 331 
L 947 331 
L 947 4331 
L 353 4331 
L 353 4666 
L 2559 4666 
Q 3259 4666 3668 4311 
Q 4078 3956 4078 3353 
Q 4078 2753 3668 2397 
Q 3259 2041 2559 2041 
L 1581 2041 
L 1581 331 
L 2303 331 
L 2303 0 
L 353 0 
z
" transform="scale(0.015625)"/>
       <path id="DejaVuSerif-72" d="M 3059 3328 
L 3059 2497 
L 2728 2497 
Q 2713 2744 2591 2866 
Q 2469 2988 2234 2988 
Q 1809 2988 1582 2694 
Q 1356 2400 1356 1850 
L 1356 331 
L 2022 331 
L 2022 0 
L 263 0 
L 263 331 
L 781 331 
L 781 2994 
L 231 2994 
L 231 3322 
L 1356 3322 
L 1356 2731 
Q 1525 3078 1790 3245 
Q 2056 3413 2438 3413 
Q 2578 3413 2733 3391 
Q 2888 3369 3059 3328 
z
" transform="scale(0.015625)"/>
       <path id="DejaVuSerif-78" d="M 1863 2028 
L 2559 2988 
L 2113 2988 
L 2113 3322 
L 3391 3322 
L 3391 2988 
L 2950 2988 
L 2059 1759 
L 3097 331 
L 3531 331 
L 3531 0 
L 1997 0 
L 1997 331 
L 2419 331 
L 1697 1325 
L 972 331 
L 1403 331 
L 1403 0 
L 141 0 
L 141 331 
L 581 331 
L 1497 1594 
L 488 2988 
L 78 2988 
L 78 3322 
L 1563 3322 
L 1563 2988 
L 1166 2988 
L 1863 2028 
z
" transform="scale(0.015625)"/>
       <path id="DejaVuSerif-79" d="M 1381 -609 
L 1600 -56 
L 359 2988 
L -19 2988 
L -19 3322 
L 1509 3322 
L 1509 2988 
L 978 2988 
L 1913 703 
L 2847 2988 
L 2350 2988 
L 2350 3322 
L 3597 3322 
L 3597 2988 
L 3225 2988 
L 1703 -750 
Q 1547 -1138 1356 -1280 
Q 1166 -1422 819 -1422 
Q 672 -1422 517 -1397 
Q 363 -1372 206 -1325 
L 206 -691 
L 500 -691 
Q 519 -903 608 -995 
Q 697 -1088 884 -1088 
Q 1056 -1088 1161 -992 
Q 1266 -897 1381 -609 
z
" transform="scale(0.015625)"/>
       <path id="DejaVuSans-302" d="M -1831 5119 
L -1369 5119 
L -603 3944 
L -1038 3944 
L -1600 4709 
L -2163 3944 
L -2597 3944 
L -1831 5119 
z
M -1600 3584 
L -1600 3584 
z
" transform="scale(0.015625)"/>
       <path id="DejaVuSans-Oblique-79" d="M 1588 -325 
Q 1188 -997 936 -1164 
Q 684 -1331 294 -1331 
L -159 -1331 
L -63 -850 
L 269 -850 
Q 509 -850 678 -719 
Q 847 -588 1056 -206 
L 1234 128 
L 459 3500 
L 1069 3500 
L 1650 819 
L 3256 3500 
L 3859 3500 
L 1588 -325 
z
" transform="scale(0.015625)"/>
      </defs>
      <use xlink:href="#DejaVuSerif-50" transform="translate(0 0.828125)"/>
      <use xlink:href="#DejaVuSerif-72" transform="translate(67.285156 0.828125)"/>
      <use xlink:href="#DejaVuSerif-6f" transform="translate(115.087891 0.828125)"/>
      <use xlink:href="#DejaVuSerif-78" transform="translate(175.292969 0.828125)"/>
      <use xlink:href="#DejaVuSerif-79" transform="translate(231.689453 0.828125)"/>
      <use xlink:href="#DejaVuSerif-20" transform="translate(288.183594 0.828125)"/>
      <use xlink:href="#DejaVuSans-302" transform="translate(382.34375 12.015625)"/>
      <use xlink:href="#DejaVuSans-Oblique-79" transform="translate(319.970703 0.828125)"/>
     </g>
    </g>
   </g>
   <g id="patch_4">
    <path d="M 52.704531 315.598281 
L 52.704531 21.558281 
" style="fill: none; stroke: #000000; stroke-width: 0.8; stroke-linejoin: miter; stroke-linecap: square"/>
   </g>
   <g id="patch_5">
    <path d="M 52.704531 315.598281 
L 346.744531 315.598281 
" style="fill: none; stroke: #000000; stroke-width: 0.8; stroke-linejoin: miter; stroke-linecap: square"/>
   </g>
   <g id="PathCollection_1">
    <defs>
     <path id="me433076e04" d="M 0 3.464102 
C 0.91869 3.464102 1.799877 3.099102 2.44949 2.44949 
C 3.099102 1.799877 3.464102 0.91869 3.464102 0 
C 3.464102 -0.91869 3.099102 -1.799877 2.44949 -2.44949 
C 1.799877 -3.099102 0.91869 -3.464102 0 -3.464102 
C -0.91869 -3.464102 -1.799877 -3.099102 -2.44949 -2.44949 
C -3.099102 -1.799877 -3.464102 -0.91869 -3.464102 0 
C -3.464102 0.91869 -3.099102 1.799877 -2.44949 2.44949 
C -1.799877 3.099102 -0.91869 3.464102 0 3.464102 
z
" style="stroke: #ffffff; stroke-opacity: 0.9; stroke-width: 0.4"/>
    </defs>
    <g clip-path="url(#pf0a48c02ad)">
     <use xlink:href="#me433076e04" x="284.878515" y="101.733046" style="fill: #2c73d2; fill-opacity: 0.9; stroke: #ffffff; stroke-opacity: 0.9; stroke-width: 0.4"/>
     <use xlink:href="#me433076e04" x="292.876403" y="100.150766" style="fill: #2c73d2; fill-opacity: 0.9; stroke: #ffffff; stroke-opacity: 0.9; stroke-width: 0.4"/>
     <use xlink:href="#me433076e04" x="282.996659" y="96.336566" style="fill: #2c73d2; fill-opacity: 0.9; stroke: #ffffff; stroke-opacity: 0.9; stroke-width: 0.4"/>
     <use xlink:href="#me433076e04" x="230.539923" y="103.157753" style="fill: #2c73d2; fill-opacity: 0.9; stroke: #ffffff; stroke-opacity: 0.9; stroke-width: 0.4"/>
     <use xlink:href="#me433076e04" x="228.893299" y="100.694786" style="fill: #2c73d2; fill-opacity: 0.9; stroke: #ffffff; stroke-opacity: 0.9; stroke-width: 0.4"/>
     <use xlink:href="#me433076e04" x="258.062067" y="98.787223" style="fill: #2c73d2; fill-opacity: 0.9; stroke: #ffffff; stroke-opacity: 0.9; stroke-width: 0.4"/>
     <use xlink:href="#me433076e04" x="287.936531" y="93.457608" style="fill: #2c73d2; fill-opacity: 0.9; stroke: #ffffff; stroke-opacity: 0.9; stroke-width: 0.4"/>
     <use xlink:href="#me433076e04" x="296.169651" y="94.273666" style="fill: #2c73d2; fill-opacity: 0.9; stroke: #ffffff; stroke-opacity: 0.9; stroke-width: 0.4"/>
     <use xlink:href="#me433076e04" x="308.166483" y="99.327945" style="fill: #2c73d2; fill-opacity: 0.9; stroke: #ffffff; stroke-opacity: 0.9; stroke-width: 0.4"/>
    </g>
   </g>
   <g id="PathCollection_2">
    <defs>
     <path id="m64678cde2f" d="M 0 3.464102 
C 0.91869 3.464102 1.799877 3.099102 2.44949 2.44949 
C 3.099102 1.799877 3.464102 0.91869 3.464102 0 
C 3.464102 -0.91869 3.099102 -1.799877 2.44949 -2.44949 
C 1.799877 -3.099102 0.91869 -3.464102 0 -3.464102 
C -0.91869 -3.464102 -1.799877 -3.099102 -2.44949 -2.44949 
C -3.099102 -1.799877 -3.464102 -0.91869 -3.464102 0 
C -3.464102 0.91869 -3.099102 1.799877 -2.44949 2.44949 
C -1.799877 3.099102 -0.91869 3.464102 0 3.464102 
z
" style="stroke: #ffffff; stroke-opacity: 0.9; stroke-width: 0.4"/>
    </defs>
    <g clip-path="url(#pf0a48c02ad)">
     <use xlink:href="#m64678cde2f" x="248.182323" y="93.899319" style="fill: #44bba4; fill-opacity: 0.9; stroke: #ffffff; stroke-opacity: 0.9; stroke-width: 0.4"/>
     <use xlink:href="#m64678cde2f" x="289.818387" y="39.605336" style="fill: #44bba4; fill-opacity: 0.9; stroke: #ffffff; stroke-opacity: 0.9; stroke-width: 0.4"/>
     <use xlink:href="#m64678cde2f" x="246.065235" y="127.084205" style="fill: #44bba4; fill-opacity: 0.9; stroke: #ffffff; stroke-opacity: 0.9; stroke-width: 0.4"/>
     <use xlink:href="#m64678cde2f" x="238.067347" y="114.495539" style="fill: #44bba4; fill-opacity: 0.9; stroke: #ffffff; stroke-opacity: 0.9; stroke-width: 0.4"/>
     <use xlink:href="#m64678cde2f" x="296.404883" y="80.483141" style="fill: #44bba4; fill-opacity: 0.9; stroke: #ffffff; stroke-opacity: 0.9; stroke-width: 0.4"/>
     <use xlink:href="#m64678cde2f" x="298.521971" y="38.180335" style="fill: #44bba4; fill-opacity: 0.9; stroke: #ffffff; stroke-opacity: 0.9; stroke-width: 0.4"/>
     <use xlink:href="#m64678cde2f" x="269.823667" y="99.910853" style="fill: #44bba4; fill-opacity: 0.9; stroke: #ffffff; stroke-opacity: 0.9; stroke-width: 0.4"/>
     <use xlink:href="#m64678cde2f" x="292.641171" y="35.654618" style="fill: #44bba4; fill-opacity: 0.9; stroke: #ffffff; stroke-opacity: 0.9; stroke-width: 0.4"/>
     <use xlink:href="#m64678cde2f" x="300.403827" y="56.956814" style="fill: #44bba4; fill-opacity: 0.9; stroke: #ffffff; stroke-opacity: 0.9; stroke-width: 0.4"/>
    </g>
   </g>
   <g id="PathCollection_3">
    <defs>
     <path id="m4a65a21a0c" d="M 0 3.464102 
C 0.91869 3.464102 1.799877 3.099102 2.44949 2.44949 
C 3.099102 1.799877 3.464102 0.91869 3.464102 0 
C 3.464102 -0.91869 3.099102 -1.799877 2.44949 -2.44949 
C 1.799877 -3.099102 0.91869 -3.464102 0 -3.464102 
C -0.91869 -3.464102 -1.799877 -3.099102 -2.44949 -2.44949 
C -3.099102 -1.799877 -3.464102 -0.91869 -3.464102 0 
C -3.464102 0.91869 -3.099102 1.799877 -2.44949 2.44949 
C -1.799877 3.099102 -0.91869 3.464102 0 3.464102 
z
" style="stroke: #ffffff; stroke-opacity: 0.9; stroke-width: 0.4"/>
    </defs>
    <g clip-path="url(#pf0a48c02ad)">
     <use xlink:href="#m4a65a21a0c" x="249.123251" y="97.119573" style="fill: #e67e22; fill-opacity: 0.9; stroke: #ffffff; stroke-opacity: 0.9; stroke-width: 0.4"/>
     <use xlink:href="#m4a65a21a0c" x="272.411219" y="101.573593" style="fill: #e67e22; fill-opacity: 0.9; stroke: #ffffff; stroke-opacity: 0.9; stroke-width: 0.4"/>
     <use xlink:href="#m4a65a21a0c" x="221.130643" y="105.662695" style="fill: #e67e22; fill-opacity: 0.9; stroke: #ffffff; stroke-opacity: 0.9; stroke-width: 0.4"/>
     <use xlink:href="#m4a65a21a0c" x="181.376435" y="102.994107" style="fill: #e67e22; fill-opacity: 0.9; stroke: #ffffff; stroke-opacity: 0.9; stroke-width: 0.4"/>
     <use xlink:href="#m4a65a21a0c" x="276.174931" y="101.265491" style="fill: #e67e22; fill-opacity: 0.9; stroke: #ffffff; stroke-opacity: 0.9; stroke-width: 0.4"/>
     <use xlink:href="#m4a65a21a0c" x="286.289907" y="95.167032" style="fill: #e67e22; fill-opacity: 0.9; stroke: #ffffff; stroke-opacity: 0.9; stroke-width: 0.4"/>
     <use xlink:href="#m4a65a21a0c" x="278.997715" y="101.765743" style="fill: #e67e22; fill-opacity: 0.9; stroke: #ffffff; stroke-opacity: 0.9; stroke-width: 0.4"/>
     <use xlink:href="#m4a65a21a0c" x="278.527251" y="92.130112" style="fill: #e67e22; fill-opacity: 0.9; stroke: #ffffff; stroke-opacity: 0.9; stroke-width: 0.4"/>
     <use xlink:href="#m4a65a21a0c" x="282.055731" y="95.602943" style="fill: #e67e22; fill-opacity: 0.9; stroke: #ffffff; stroke-opacity: 0.9; stroke-width: 0.4"/>
    </g>
   </g>
   <g id="text_17">
    <g id="patch_6">
     <path d="M 236.629981 312.117481 
L 340.863731 312.117481 
Q 343.263731 312.117481 343.263731 309.717481 
L 343.263731 283.830981 
Q 343.263731 281.430981 340.863731 281.430981 
L 236.629981 281.430981 
Q 234.229981 281.430981 234.229981 283.830981 
L 234.229981 309.717481 
Q 234.229981 312.117481 236.629981 312.117481 
z
" style="fill: #ffffff; opacity: 0.92; stroke: #cccccc; stroke-linejoin: miter"/>
    </g>
    <!-- Low-mIoU flagged: 27/27 -->
    <g transform="translate(237.654981 290.023481) scale(0.08 -0.08)">
     <defs>
      <path id="DejaVuSerif-4c" d="M 353 0 
L 353 331 
L 947 331 
L 947 4331 
L 353 4331 
L 353 4666 
L 2175 4666 
L 2175 4331 
L 1581 4331 
L 1581 384 
L 3713 384 
L 3713 1166 
L 4097 1166 
L 4097 0 
L 353 0 
z
" transform="scale(0.015625)"/>
      <path id="DejaVuSerif-77" d="M 3072 3322 
L 3922 728 
L 4672 2988 
L 4191 2988 
L 4191 3322 
L 5394 3322 
L 5394 2988 
L 5025 2988 
L 4038 0 
L 3559 0 
L 2741 2484 
L 1919 0 
L 1459 0 
L 475 2988 
L 103 2988 
L 103 3322 
L 1606 3322 
L 1606 2988 
L 1069 2988 
L 1813 728 
L 2669 3322 
L 3072 3322 
z
" transform="scale(0.015625)"/>
      <path id="DejaVuSerif-2d" d="M 281 1959 
L 1881 1959 
L 1881 1472 
L 281 1472 
L 281 1959 
z
" transform="scale(0.015625)"/>
      <path id="DejaVuSerif-66" d="M 2753 4078 
L 2450 4078 
Q 2447 4313 2317 4434 
Q 2188 4556 1941 4556 
Q 1619 4556 1487 4379 
Q 1356 4203 1356 3750 
L 1356 3322 
L 2284 3322 
L 2284 2988 
L 1356 2988 
L 1356 331 
L 2094 331 
L 2094 0 
L 231 0 
L 231 331 
L 781 331 
L 781 2988 
L 231 2988 
L 231 3322 
L 781 3322 
L 781 3738 
Q 781 4294 1070 4578 
Q 1359 4863 1919 4863 
Q 2128 4863 2337 4825 
Q 2547 4788 2753 4709 
L 2753 4078 
z
" transform="scale(0.015625)"/>
      <path id="DejaVuSerif-6c" d="M 1313 331 
L 1856 331 
L 1856 0 
L 184 0 
L 184 331 
L 738 331 
L 738 4531 
L 184 4531 
L 184 4863 
L 1313 4863 
L 1313 331 
z
" transform="scale(0.015625)"/>
      <path id="DejaVuSerif-61" d="M 2547 1044 
L 2547 1747 
L 1806 1747 
Q 1378 1747 1168 1562 
Q 959 1378 959 997 
Q 959 650 1171 447 
Q 1384 244 1747 244 
Q 2106 244 2326 466 
Q 2547 688 2547 1044 
z
M 3122 2075 
L 3122 331 
L 3634 331 
L 3634 0 
L 2547 0 
L 2547 359 
Q 2356 128 2106 18 
Q 1856 -91 1522 -91 
Q 969 -91 644 203 
Q 319 497 319 997 
Q 319 1513 691 1797 
Q 1063 2081 1741 2081 
L 2547 2081 
L 2547 2309 
Q 2547 2688 2317 2895 
Q 2088 3103 1672 3103 
Q 1328 3103 1125 2947 
Q 922 2791 872 2484 
L 575 2484 
L 575 3156 
Q 875 3284 1158 3348 
Q 1441 3413 1709 3413 
Q 2400 3413 2761 3070 
Q 3122 2728 3122 2075 
z
" transform="scale(0.015625)"/>
      <path id="DejaVuSerif-67" d="M 3359 2988 
L 3359 72 
Q 3359 -644 2965 -1033 
Q 2572 -1422 1844 -1422 
Q 1516 -1422 1216 -1362 
Q 916 -1303 641 -1184 
L 641 -488 
L 941 -488 
Q 997 -813 1206 -963 
Q 1416 -1113 1806 -1113 
Q 2313 -1113 2548 -827 
Q 2784 -541 2784 72 
L 2784 519 
Q 2616 206 2355 57 
Q 2094 -91 1709 -91 
Q 1097 -91 708 395 
Q 319 881 319 1663 
Q 319 2444 706 2928 
Q 1094 3413 1709 3413 
Q 2094 3413 2355 3264 
Q 2616 3116 2784 2803 
L 2784 3322 
L 3909 3322 
L 3909 2988 
L 3359 2988 
z
M 2784 1825 
Q 2784 2422 2554 2737 
Q 2325 3053 1888 3053 
Q 1444 3053 1217 2703 
Q 991 2353 991 1663 
Q 991 975 1217 622 
Q 1444 269 1888 269 
Q 2325 269 2554 583 
Q 2784 897 2784 1497 
L 2784 1825 
z
" transform="scale(0.015625)"/>
      <path id="DejaVuSerif-65" d="M 3469 1600 
L 991 1600 
L 991 1575 
Q 991 903 1244 561 
Q 1497 219 1991 219 
Q 2369 219 2611 417 
Q 2853 616 2950 1006 
L 3413 1006 
Q 3275 459 2904 184 
Q 2534 -91 1931 -91 
Q 1203 -91 761 389 
Q 319 869 319 1663 
Q 319 2450 753 2931 
Q 1188 3413 1894 3413 
Q 2647 3413 3050 2948 
Q 3453 2484 3469 1600 
z
M 2791 1931 
Q 2772 2513 2545 2808 
Q 2319 3103 1894 3103 
Q 1497 3103 1269 2806 
Q 1041 2509 991 1931 
L 2791 1931 
z
" transform="scale(0.015625)"/>
      <path id="DejaVuSerif-64" d="M 3359 331 
L 3909 331 
L 3909 0 
L 2784 0 
L 2784 519 
Q 2616 206 2355 57 
Q 2094 -91 1709 -91 
Q 1097 -91 708 395 
Q 319 881 319 1663 
Q 319 2444 706 2928 
Q 1094 3413 1709 3413 
Q 2094 3413 2355 3264 
Q 2616 3116 2784 2803 
L 2784 4531 
L 2241 4531 
L 2241 4863 
L 3359 4863 
L 3359 331 
z
M 2784 1497 
L 2784 1825 
Q 2784 2422 2554 2737 
Q 2325 3053 1888 3053 
Q 1444 3053 1217 2703 
Q 991 2353 991 1663 
Q 991 975 1217 622 
Q 1444 269 1888 269 
Q 2325 269 2554 583 
Q 2784 897 2784 1497 
z
" transform="scale(0.015625)"/>
      <path id="DejaVuSerif-3a" d="M 666 325 
Q 666 500 786 622 
Q 906 744 1081 744 
Q 1256 744 1376 622 
Q 1497 500 1497 325 
Q 1497 150 1378 29 
Q 1259 -91 1081 -91 
Q 903 -91 784 29 
Q 666 150 666 325 
z
M 666 2363 
Q 666 2538 786 2658 
Q 906 2778 1081 2778 
Q 1259 2778 1378 2659 
Q 1497 2541 1497 2363 
Q 1497 2184 1378 2065 
Q 1259 1947 1081 1947 
Q 906 1947 786 2067 
Q 666 2188 666 2363 
z
" transform="scale(0.015625)"/>
      <path id="DejaVuSerif-37" d="M 3609 4347 
L 1784 0 
L 1319 0 
L 3059 4153 
L 903 4153 
L 903 3578 
L 538 3578 
L 538 4666 
L 3609 4666 
L 3609 4347 
z
" transform="scale(0.015625)"/>
      <path id="DejaVuSerif-2f" d="M 1656 4666 
L 2156 4666 
L 500 -594 
L 0 -594 
L 1656 4666 
z
" transform="scale(0.015625)"/>
     </defs>
     <use xlink:href="#DejaVuSerif-4c"/>
     <use xlink:href="#DejaVuSerif-6f" transform="translate(66.40625 0)"/>
     <use xlink:href="#DejaVuSerif-77" transform="translate(126.611328 0)"/>
     <use xlink:href="#DejaVuSerif-2d" transform="translate(212.207031 0)"/>
     <use xlink:href="#DejaVuSerif-6d" transform="translate(245.996094 0)"/>
     <use xlink:href="#DejaVuSerif-49" transform="translate(340.820312 0)"/>
     <use xlink:href="#DejaVuSerif-6f" transform="translate(380.322266 0)"/>
     <use xlink:href="#DejaVuSerif-55" transform="translate(440.527344 0)"/>
     <use xlink:href="#DejaVuSerif-20" transform="translate(524.804688 0)"/>
     <use xlink:href="#DejaVuSerif-66" transform="translate(556.591797 0)"/>
     <use xlink:href="#DejaVuSerif-6c" transform="translate(593.603516 0)"/>
     <use xlink:href="#DejaVuSerif-61" transform="translate(625.585938 0)"/>
     <use xlink:href="#DejaVuSerif-67" transform="translate(685.205078 0)"/>
     <use xlink:href="#DejaVuSerif-67" transform="translate(749.21875 0)"/>
     <use xlink:href="#DejaVuSerif-65" transform="translate(813.232422 0)"/>
     <use xlink:href="#DejaVuSerif-64" transform="translate(872.412109 0)"/>
     <use xlink:href="#DejaVuSerif-3a" transform="translate(936.425781 0)"/>
     <use xlink:href="#DejaVuSerif-20" transform="translate(970.117188 0)"/>
     <use xlink:href="#DejaVuSerif-32" transform="translate(1001.904297 0)"/>
     <use xlink:href="#DejaVuSerif-37" transform="translate(1065.527344 0)"/>
     <use xlink:href="#DejaVuSerif-2f" transform="translate(1129.150391 0)"/>
     <use xlink:href="#DejaVuSerif-32" transform="translate(1162.841797 0)"/>
     <use xlink:href="#DejaVuSerif-37" transform="translate(1226.464844 0)"/>
    </g>
    <!-- Anchor false alarms: 0/27 -->
    <g transform="translate(236.629981 299.095481) scale(0.08 -0.08)">
     <defs>
      <path id="DejaVuSerif-41" d="M 1281 1691 
L 2994 1691 
L 2138 3909 
L 1281 1691 
z
M -38 0 
L -38 331 
L 372 331 
L 2034 4666 
L 2559 4666 
L 4225 331 
L 4684 331 
L 4684 0 
L 2988 0 
L 2988 331 
L 3506 331 
L 3116 1356 
L 1153 1356 
L 763 331 
L 1275 331 
L 1275 0 
L -38 0 
z
" transform="scale(0.015625)"/>
      <path id="DejaVuSerif-6e" d="M 263 0 
L 263 331 
L 781 331 
L 781 2988 
L 231 2988 
L 231 3322 
L 1356 3322 
L 1356 2731 
Q 1516 3069 1770 3241 
Q 2025 3413 2363 3413 
Q 2913 3413 3172 3097 
Q 3431 2781 3431 2113 
L 3431 331 
L 3944 331 
L 3944 0 
L 2356 0 
L 2356 331 
L 2853 331 
L 2853 1931 
Q 2853 2541 2703 2767 
Q 2553 2994 2175 2994 
Q 1775 2994 1565 2701 
Q 1356 2409 1356 1850 
L 1356 331 
L 1856 331 
L 1856 0 
L 263 0 
z
" transform="scale(0.015625)"/>
      <path id="DejaVuSerif-63" d="M 3291 997 
Q 3169 466 2822 187 
Q 2475 -91 1925 -91 
Q 1200 -91 759 389 
Q 319 869 319 1663 
Q 319 2459 759 2936 
Q 1200 3413 1925 3413 
Q 2241 3413 2553 3339 
Q 2866 3266 3181 3116 
L 3181 2266 
L 2847 2266 
Q 2781 2703 2561 2903 
Q 2341 3103 1931 3103 
Q 1466 3103 1228 2742 
Q 991 2381 991 1663 
Q 991 944 1227 581 
Q 1463 219 1931 219 
Q 2303 219 2525 412 
Q 2747 606 2828 997 
L 3291 997 
z
" transform="scale(0.015625)"/>
      <path id="DejaVuSerif-68" d="M 263 0 
L 263 331 
L 781 331 
L 781 4531 
L 231 4531 
L 231 4863 
L 1356 4863 
L 1356 2731 
Q 1516 3069 1770 3241 
Q 2025 3413 2363 3413 
Q 2913 3413 3172 3097 
Q 3431 2781 3431 2113 
L 3431 331 
L 3944 331 
L 3944 0 
L 2356 0 
L 2356 331 
L 2853 331 
L 2853 1931 
Q 2853 2541 2704 2764 
Q 2556 2988 2175 2988 
Q 1775 2988 1565 2697 
Q 1356 2406 1356 1850 
L 1356 331 
L 1856 331 
L 1856 0 
L 263 0 
z
" transform="scale(0.015625)"/>
      <path id="DejaVuSerif-73" d="M 359 184 
L 359 959 
L 691 959 
Q 703 588 923 403 
Q 1144 219 1575 219 
Q 1963 219 2166 364 
Q 2369 509 2369 788 
Q 2369 1006 2220 1140 
Q 2072 1275 1594 1428 
L 1178 1569 
Q 750 1706 558 1912 
Q 366 2119 366 2438 
Q 366 2894 700 3153 
Q 1034 3413 1625 3413 
Q 1888 3413 2178 3344 
Q 2469 3275 2778 3144 
L 2778 2419 
L 2447 2419 
Q 2434 2741 2221 2922 
Q 2009 3103 1644 3103 
Q 1281 3103 1095 2975 
Q 909 2847 909 2591 
Q 909 2381 1050 2254 
Q 1191 2128 1613 1997 
L 2069 1856 
Q 2541 1709 2748 1489 
Q 2956 1269 2956 922 
Q 2956 450 2595 179 
Q 2234 -91 1600 -91 
Q 1278 -91 972 -22 
Q 666 47 359 184 
z
" transform="scale(0.015625)"/>
     </defs>
     <use xlink:href="#DejaVuSerif-41"/>
     <use xlink:href="#DejaVuSerif-6e" transform="translate(72.216797 0)"/>
     <use xlink:href="#DejaVuSerif-63" transform="translate(136.621094 0)"/>
     <use xlink:href="#DejaVuSerif-68" transform="translate(192.626953 0)"/>
     <use xlink:href="#DejaVuSerif-6f" transform="translate(257.03125 0)"/>
     <use xlink:href="#DejaVuSerif-72" transform="translate(317.236328 0)"/>
     <use xlink:href="#DejaVuSerif-20" transform="translate(365.039062 0)"/>
     <use xlink:href="#DejaVuSerif-66" transform="translate(396.826172 0)"/>
     <use xlink:href="#DejaVuSerif-61" transform="translate(433.837891 0)"/>
     <use xlink:href="#DejaVuSerif-6c" transform="translate(493.457031 0)"/>
     <use xlink:href="#DejaVuSerif-73" transform="translate(525.439453 0)"/>
     <use xlink:href="#DejaVuSerif-65" transform="translate(576.757812 0)"/>
     <use xlink:href="#DejaVuSerif-20" transform="translate(635.9375 0)"/>
     <use xlink:href="#DejaVuSerif-61" transform="translate(667.724609 0)"/>
     <use xlink:href="#DejaVuSerif-6c" transform="translate(727.34375 0)"/>
     <use xlink:href="#DejaVuSerif-61" transform="translate(759.326172 0)"/>
     <use xlink:href="#DejaVuSerif-72" transform="translate(818.945312 0)"/>
     <use xlink:href="#DejaVuSerif-6d" transform="translate(866.748047 0)"/>
     <use xlink:href="#DejaVuSerif-73" transform="translate(961.572266 0)"/>
     <use xlink:href="#DejaVuSerif-3a" transform="translate(1012.890625 0)"/>
     <use xlink:href="#DejaVuSerif-20" transform="translate(1046.582031 0)"/>
     <use xlink:href="#DejaVuSerif-30" transform="translate(1078.369141 0)"/>
     <use xlink:href="#DejaVuSerif-2f" transform="translate(1141.992188 0)"/>
     <use xlink:href="#DejaVuSerif-32" transform="translate(1175.683594 0)"/>
     <use xlink:href="#DejaVuSerif-37" transform="translate(1239.306641 0)"/>
    </g>
    <!-- $n$ = 54 -->
    <g transform="translate(313.823731 308.053731) scale(0.08 -0.08)">
     <defs>
      <path id="DejaVuSans-Oblique-6e" d="M 3566 2113 
L 3156 0 
L 2578 0 
L 2988 2091 
Q 3016 2238 3031 2350 
Q 3047 2463 3047 2528 
Q 3047 2791 2881 2937 
Q 2716 3084 2419 3084 
Q 1956 3084 1622 2776 
Q 1288 2469 1184 1941 
L 800 0 
L 225 0 
L 903 3500 
L 1478 3500 
L 1363 2950 
Q 1603 3253 1940 3418 
Q 2278 3584 2650 3584 
Q 3113 3584 3367 3334 
Q 3622 3084 3622 2631 
Q 3622 2519 3608 2391 
Q 3594 2263 3566 2113 
z
" transform="scale(0.015625)"/>
      <path id="DejaVuSerif-3d" d="M 678 2894 
L 4684 2894 
L 4684 2394 
L 678 2394 
L 678 2894 
z
M 678 1619 
L 4684 1619 
L 4684 1119 
L 678 1119 
L 678 1619 
z
" transform="scale(0.015625)"/>
      <path id="DejaVuSerif-35" d="M 3219 4666 
L 3219 4153 
L 1081 4153 
L 1081 2816 
Q 1244 2928 1461 2984 
Q 1678 3041 1947 3041 
Q 2703 3041 3140 2622 
Q 3578 2203 3578 1478 
Q 3578 738 3136 323 
Q 2694 -91 1894 -91 
Q 1572 -91 1234 -12 
Q 897 66 544 225 
L 544 1131 
L 897 1131 
Q 925 688 1179 453 
Q 1434 219 1894 219 
Q 2388 219 2653 544 
Q 2919 869 2919 1478 
Q 2919 2084 2655 2407 
Q 2391 2731 1894 2731 
Q 1613 2731 1398 2631 
Q 1184 2531 1019 2322 
L 750 2322 
L 750 4666 
L 3219 4666 
z
" transform="scale(0.015625)"/>
     </defs>
     <use xlink:href="#DejaVuSans-Oblique-6e" transform="translate(0 0.78125)"/>
     <use xlink:href="#DejaVuSerif-20" transform="translate(63.378906 0.78125)"/>
     <use xlink:href="#DejaVuSerif-3d" transform="translate(95.166016 0.78125)"/>
     <use xlink:href="#DejaVuSerif-20" transform="translate(178.955078 0.78125)"/>
     <use xlink:href="#DejaVuSerif-35" transform="translate(210.742188 0.78125)"/>
     <use xlink:href="#DejaVuSerif-34" transform="translate(274.365234 0.78125)"/>
    </g>
   </g>
   <g id="text_18">
    <!-- Holdout: proxy flags low-mIoU runs -->
    <g transform="translate(99.834219 15.558281) scale(0.11 -0.11)">
     <defs>
      <path id="DejaVuSerif-48" d="M 353 0 
L 353 331 
L 947 331 
L 947 4331 
L 353 4331 
L 353 4666 
L 2175 4666 
L 2175 4331 
L 1581 4331 
L 1581 2719 
L 4000 2719 
L 4000 4331 
L 3406 4331 
L 3406 4666 
L 5228 4666 
L 5228 4331 
L 4634 4331 
L 4634 331 
L 5228 331 
L 5228 0 
L 3406 0 
L 3406 331 
L 4000 331 
L 4000 2338 
L 1581 2338 
L 1581 331 
L 2175 331 
L 2175 0 
L 353 0 
z
" transform="scale(0.015625)"/>
      <path id="DejaVuSerif-75" d="M 2266 3322 
L 3341 3322 
L 3341 331 
L 3884 331 
L 3884 0 
L 2766 0 
L 2766 588 
Q 2606 256 2353 82 
Q 2100 -91 1766 -91 
Q 1213 -91 952 223 
Q 691 538 691 1209 
L 691 2988 
L 172 2988 
L 172 3322 
L 1269 3322 
L 1269 1388 
Q 1269 781 1417 556 
Q 1566 331 1947 331 
Q 2347 331 2556 625 
Q 2766 919 2766 1478 
L 2766 2988 
L 2266 2988 
L 2266 3322 
z
" transform="scale(0.015625)"/>
      <path id="DejaVuSerif-74" d="M 691 2988 
L 184 2988 
L 184 3322 
L 691 3322 
L 691 4353 
L 1269 4353 
L 1269 3322 
L 2350 3322 
L 2350 2988 
L 1269 2988 
L 1269 878 
Q 1269 456 1350 337 
Q 1431 219 1650 219 
Q 1875 219 1978 351 
Q 2081 484 2088 781 
L 2522 781 
Q 2497 328 2275 118 
Q 2053 -91 1600 -91 
Q 1103 -91 897 129 
Q 691 350 691 878 
L 691 2988 
z
" transform="scale(0.015625)"/>
      <path id="DejaVuSerif-70" d="M 1313 1825 
L 1313 1497 
Q 1313 897 1542 583 
Q 1772 269 2209 269 
Q 2650 269 2876 622 
Q 3103 975 3103 1663 
Q 3103 2353 2876 2703 
Q 2650 3053 2209 3053 
Q 1772 3053 1542 2737 
Q 1313 2422 1313 1825 
z
M 738 2988 
L 184 2988 
L 184 3322 
L 1313 3322 
L 1313 2803 
Q 1481 3116 1742 3264 
Q 2003 3413 2388 3413 
Q 3000 3413 3387 2928 
Q 3775 2444 3775 1663 
Q 3775 881 3387 395 
Q 3000 -91 2388 -91 
Q 2003 -91 1742 57 
Q 1481 206 1313 519 
L 1313 -997 
L 1856 -997 
L 1856 -1331 
L 184 -1331 
L 184 -997 
L 738 -997 
L 738 2988 
z
" transform="scale(0.015625)"/>
     </defs>
     <use xlink:href="#DejaVuSerif-48"/>
     <use xlink:href="#DejaVuSerif-6f" transform="translate(87.207031 0)"/>
     <use xlink:href="#DejaVuSerif-6c" transform="translate(147.412109 0)"/>
     <use xlink:href="#DejaVuSerif-64" transform="translate(179.394531 0)"/>
     <use xlink:href="#DejaVuSerif-6f" transform="translate(243.408203 0)"/>
     <use xlink:href="#DejaVuSerif-75" transform="translate(303.613281 0)"/>
     <use xlink:href="#DejaVuSerif-74" transform="translate(368.017578 0)"/>
     <use xlink:href="#DejaVuSerif-3a" transform="translate(408.203125 0)"/>
     <use xlink:href="#DejaVuSerif-20" transform="translate(441.894531 0)"/>
     <use xlink:href="#DejaVuSerif-70" transform="translate(473.681641 0)"/>
     <use xlink:href="#DejaVuSerif-72" transform="translate(537.695312 0)"/>
     <use xlink:href="#DejaVuSerif-6f" transform="translate(585.498047 0)"/>
     <use xlink:href="#DejaVuSerif-78" transform="translate(645.703125 0)"/>
     <use xlink:href="#DejaVuSerif-79" transform="translate(702.099609 0)"/>
     <use xlink:href="#DejaVuSerif-20" transform="translate(758.59375 0)"/>
     <use xlink:href="#DejaVuSerif-66" transform="translate(790.380859 0)"/>
     <use xlink:href="#DejaVuSerif-6c" transform="translate(827.392578 0)"/>
     <use xlink:href="#DejaVuSerif-61" transform="translate(859.375 0)"/>
     <use xlink:href="#DejaVuSerif-67" transform="translate(918.994141 0)"/>
     <use xlink:href="#DejaVuSerif-73" transform="translate(983.007812 0)"/>
     <use xlink:href="#DejaVuSerif-20" transform="translate(1034.326172 0)"/>
     <use xlink:href="#DejaVuSerif-6c" transform="translate(1066.113281 0)"/>
     <use xlink:href="#DejaVuSerif-6f" transform="translate(1098.095703 0)"/>
     <use xlink:href="#DejaVuSerif-77" transform="translate(1158.300781 0)"/>
     <use xlink:href="#DejaVuSerif-2d" transform="translate(1243.896484 0)"/>
     <use xlink:href="#DejaVuSerif-6d" transform="translate(1277.685547 0)"/>
     <use xlink:href="#DejaVuSerif-49" transform="translate(1372.509766 0)"/>
     <use xlink:href="#DejaVuSerif-6f" transform="translate(1412.011719 0)"/>
     <use xlink:href="#DejaVuSerif-55" transform="translate(1472.216797 0)"/>
     <use xlink:href="#DejaVuSerif-20" transform="translate(1556.494141 0)"/>
     <use xlink:href="#DejaVuSerif-72" transform="translate(1588.28125 0)"/>
     <use xlink:href="#DejaVuSerif-75" transform="translate(1636.083984 0)"/>
     <use xlink:href="#DejaVuSerif-6e" transform="translate(1700.488281 0)"/>
     <use xlink:href="#DejaVuSerif-73" transform="translate(1764.892578 0)"/>
    </g>
   </g>
   <g id="PathCollection_4">
    <defs>
     <path id="m42e94ce03c" d="M -1.802776 3.605551 
L 0 1.802776 
L 1.802776 3.605551 
L 3.605551 1.802776 
L 1.802776 0 
L 3.605551 -1.802776 
L 1.802776 -3.605551 
L 0 -1.802776 
L -1.802776 -3.605551 
L -3.605551 -1.802776 
L -1.802776 0 
L -3.605551 1.802776 
z
" style="stroke: #2c73d2; stroke-opacity: 0.85; stroke-width: 0.8"/>
    </defs>
    <g clip-path="url(#pf0a48c02ad)">
     <use xlink:href="#m42e94ce03c" x="107.984051" y="267.857071" style="fill: #2c73d2; fill-opacity: 0.85; stroke: #2c73d2; stroke-opacity: 0.85; stroke-width: 0.8"/>
     <use xlink:href="#m42e94ce03c" x="108.454515" y="277.539727" style="fill: #2c73d2; fill-opacity: 0.85; stroke: #2c73d2; stroke-opacity: 0.85; stroke-width: 0.8"/>
     <use xlink:href="#m42e94ce03c" x="128.214003" y="232.961477" style="fill: #2c73d2; fill-opacity: 0.85; stroke: #2c73d2; stroke-opacity: 0.85; stroke-width: 0.8"/>
     <use xlink:href="#m42e94ce03c" x="109.395443" y="275.8884" style="fill: #2c73d2; fill-opacity: 0.85; stroke: #2c73d2; stroke-opacity: 0.85; stroke-width: 0.8"/>
     <use xlink:href="#m42e94ce03c" x="108.454515" y="270.334513" style="fill: #2c73d2; fill-opacity: 0.85; stroke: #2c73d2; stroke-opacity: 0.85; stroke-width: 0.8"/>
     <use xlink:href="#m42e94ce03c" x="107.278355" y="260.596147" style="fill: #2c73d2; fill-opacity: 0.85; stroke: #2c73d2; stroke-opacity: 0.85; stroke-width: 0.8"/>
     <use xlink:href="#m42e94ce03c" x="107.748819" y="261.192482" style="fill: #2c73d2; fill-opacity: 0.85; stroke: #2c73d2; stroke-opacity: 0.85; stroke-width: 0.8"/>
     <use xlink:href="#m42e94ce03c" x="107.513587" y="263.423412" style="fill: #2c73d2; fill-opacity: 0.85; stroke: #2c73d2; stroke-opacity: 0.85; stroke-width: 0.8"/>
     <use xlink:href="#m42e94ce03c" x="107.513587" y="267.455788" style="fill: #2c73d2; fill-opacity: 0.85; stroke: #2c73d2; stroke-opacity: 0.85; stroke-width: 0.8"/>
    </g>
   </g>
   <g id="PathCollection_5">
    <defs>
     <path id="m83db5898e8" d="M -1.802776 3.605551 
L 0 1.802776 
L 1.802776 3.605551 
L 3.605551 1.802776 
L 1.802776 0 
L 3.605551 -1.802776 
L 1.802776 -3.605551 
L 0 -1.802776 
L -1.802776 -3.605551 
L -3.605551 -1.802776 
L -1.802776 0 
L -3.605551 1.802776 
z
" style="stroke: #44bba4; stroke-opacity: 0.85; stroke-width: 0.8"/>
    </defs>
    <g clip-path="url(#pf0a48c02ad)">
     <use xlink:href="#m83db5898e8" x="106.102195" y="251.878411" style="fill: #44bba4; fill-opacity: 0.85; stroke: #44bba4; stroke-opacity: 0.85; stroke-width: 0.8"/>
     <use xlink:href="#m83db5898e8" x="107.043123" y="250.591248" style="fill: #44bba4; fill-opacity: 0.85; stroke: #44bba4; stroke-opacity: 0.85; stroke-width: 0.8"/>
     <use xlink:href="#m83db5898e8" x="110.101139" y="259.024817" style="fill: #44bba4; fill-opacity: 0.85; stroke: #44bba4; stroke-opacity: 0.85; stroke-width: 0.8"/>
     <use xlink:href="#m83db5898e8" x="108.689747" y="254.582376" style="fill: #44bba4; fill-opacity: 0.85; stroke: #44bba4; stroke-opacity: 0.85; stroke-width: 0.8"/>
     <use xlink:href="#m83db5898e8" x="111.042067" y="300.669512" style="fill: #44bba4; fill-opacity: 0.85; stroke: #44bba4; stroke-opacity: 0.85; stroke-width: 0.8"/>
     <use xlink:href="#m83db5898e8" x="107.043123" y="251.143884" style="fill: #44bba4; fill-opacity: 0.85; stroke: #44bba4; stroke-opacity: 0.85; stroke-width: 0.8"/>
     <use xlink:href="#m83db5898e8" x="109.395443" y="256.39099" style="fill: #44bba4; fill-opacity: 0.85; stroke: #44bba4; stroke-opacity: 0.85; stroke-width: 0.8"/>
     <use xlink:href="#m83db5898e8" x="108.454515" y="252.280693" style="fill: #44bba4; fill-opacity: 0.85; stroke: #44bba4; stroke-opacity: 0.85; stroke-width: 0.8"/>
     <use xlink:href="#m83db5898e8" x="109.160211" y="250.289382" style="fill: #44bba4; fill-opacity: 0.85; stroke: #44bba4; stroke-opacity: 0.85; stroke-width: 0.8"/>
    </g>
   </g>
   <g id="PathCollection_6">
    <defs>
     <path id="m2db77b2f47" d="M -1.802776 3.605551 
L 0 1.802776 
L 1.802776 3.605551 
L 3.605551 1.802776 
L 1.802776 0 
L 3.605551 -1.802776 
L 1.802776 -3.605551 
L 0 -1.802776 
L -1.802776 -3.605551 
L -3.605551 -1.802776 
L -1.802776 0 
L -3.605551 1.802776 
z
" style="stroke: #e67e22; stroke-opacity: 0.85; stroke-width: 0.8"/>
    </defs>
    <g clip-path="url(#pf0a48c02ad)">
     <use xlink:href="#m2db77b2f47" x="108.219283" y="281.675791" style="fill: #e67e22; fill-opacity: 0.85; stroke: #e67e22; stroke-opacity: 0.85; stroke-width: 0.8"/>
     <use xlink:href="#m2db77b2f47" x="109.630675" y="284.340506" style="fill: #e67e22; fill-opacity: 0.85; stroke: #e67e22; stroke-opacity: 0.85; stroke-width: 0.8"/>
     <use xlink:href="#m2db77b2f47" x="109.630675" y="275.574989" style="fill: #e67e22; fill-opacity: 0.85; stroke: #e67e22; stroke-opacity: 0.85; stroke-width: 0.8"/>
     <use xlink:href="#m2db77b2f47" x="112.923923" y="262.382288" style="fill: #e67e22; fill-opacity: 0.85; stroke: #e67e22; stroke-opacity: 0.85; stroke-width: 0.8"/>
     <use xlink:href="#m2db77b2f47" x="109.630675" y="283.458115" style="fill: #e67e22; fill-opacity: 0.85; stroke: #e67e22; stroke-opacity: 0.85; stroke-width: 0.8"/>
     <use xlink:href="#m2db77b2f47" x="109.160211" y="270.986313" style="fill: #e67e22; fill-opacity: 0.85; stroke: #e67e22; stroke-opacity: 0.85; stroke-width: 0.8"/>
     <use xlink:href="#m2db77b2f47" x="113.159155" y="252.660521" style="fill: #e67e22; fill-opacity: 0.85; stroke: #e67e22; stroke-opacity: 0.85; stroke-width: 0.8"/>
     <use xlink:href="#m2db77b2f47" x="111.042067" y="267.805449" style="fill: #e67e22; fill-opacity: 0.85; stroke: #e67e22; stroke-opacity: 0.85; stroke-width: 0.8"/>
     <use xlink:href="#m2db77b2f47" x="109.160211" y="275.73768" style="fill: #e67e22; fill-opacity: 0.85; stroke: #e67e22; stroke-opacity: 0.85; stroke-width: 0.8"/>
    </g>
   </g>
   <g id="legend_1">
    <g id="line2d_17">
     <path d="M 280.382344 284.743594 
L 287.382344 284.743594 
L 294.382344 284.743594 
" style="fill: none; stroke: #ffffff; stroke-width: 1.5; stroke-linecap: square"/>
     <defs>
      <path id="m4329d65407" d="M 0 3.5 
C 0.928211 3.5 1.81853 3.131218 2.474874 2.474874 
C 3.131218 1.81853 3.5 0.928211 3.5 0 
C 3.5 -0.928211 3.131218 -1.81853 2.474874 -2.474874 
C 1.81853 -3.131218 0.928211 -3.5 0 -3.5 
C -0.928211 -3.5 -1.81853 -3.131218 -2.474874 -2.474874 
C -3.131218 -1.81853 -3.5 -0.928211 -3.5 0 
C -3.5 0.928211 -3.131218 1.81853 -2.474874 2.474874 
C -1.81853 3.131218 -0.928211 3.5 0 3.5 
z
" style="stroke: #ffffff"/>
     </defs>
     <g>
      <use xlink:href="#m4329d65407" x="287.382344" y="284.743594" style="fill: #2c73d2; stroke: #ffffff"/>
     </g>
    </g>
    <g id="text_19">
     <!-- Staggered -->
     <g transform="translate(299.982344 287.193594) scale(0.07 -0.07)">
      <defs>
       <path id="DejaVuSerif-53" d="M 594 225 
L 594 1288 
L 953 1284 
Q 969 753 1261 498 
Q 1553 244 2150 244 
Q 2706 244 2998 464 
Q 3291 684 3291 1106 
Q 3291 1444 3114 1625 
Q 2938 1806 2369 1978 
L 1753 2163 
Q 1084 2366 811 2669 
Q 538 2972 538 3500 
Q 538 4094 959 4422 
Q 1381 4750 2144 4750 
Q 2469 4750 2856 4679 
Q 3244 4609 3681 4475 
L 3681 3481 
L 3328 3481 
Q 3275 3975 2998 4195 
Q 2722 4416 2156 4416 
Q 1663 4416 1405 4214 
Q 1147 4013 1147 3628 
Q 1147 3294 1340 3103 
Q 1534 2913 2163 2725 
L 2741 2553 
Q 3375 2363 3645 2067 
Q 3916 1772 3916 1275 
Q 3916 597 3481 253 
Q 3047 -91 2188 -91 
Q 1803 -91 1404 -12 
Q 1006 66 594 225 
z
" transform="scale(0.015625)"/>
      </defs>
      <use xlink:href="#DejaVuSerif-53"/>
      <use xlink:href="#DejaVuSerif-74" transform="translate(68.505859 0)"/>
      <use xlink:href="#DejaVuSerif-61" transform="translate(108.691406 0)"/>
      <use xlink:href="#DejaVuSerif-67" transform="translate(168.310547 0)"/>
      <use xlink:href="#DejaVuSerif-67" transform="translate(232.324219 0)"/>
      <use xlink:href="#DejaVuSerif-65" transform="translate(296.337891 0)"/>
      <use xlink:href="#DejaVuSerif-72" transform="translate(355.517578 0)"/>
      <use xlink:href="#DejaVuSerif-65" transform="translate(403.320312 0)"/>
      <use xlink:href="#DejaVuSerif-64" transform="translate(462.5 0)"/>
     </g>
    </g>
    <g id="line2d_18">
     <path d="M 280.382344 295.117813 
L 287.382344 295.117813 
L 294.382344 295.117813 
" style="fill: none; stroke: #ffffff; stroke-width: 1.5; stroke-linecap: square"/>
     <defs>
      <path id="m3bc93e06ea" d="M 0 3.5 
C 0.928211 3.5 1.81853 3.131218 2.474874 2.474874 
C 3.131218 1.81853 3.5 0.928211 3.5 0 
C 3.5 -0.928211 3.131218 -1.81853 2.474874 -2.474874 
C 1.81853 -3.131218 0.928211 -3.5 0 -3.5 
C -0.928211 -3.5 -1.81853 -3.131218 -2.474874 -2.474874 
C -3.131218 -1.81853 -3.5 -0.928211 -3.5 0 
C -3.5 0.928211 -3.131218 1.81853 -2.474874 2.474874 
C -1.81853 3.131218 -0.928211 3.5 0 3.5 
z
" style="stroke: #ffffff"/>
     </defs>
     <g>
      <use xlink:href="#m3bc93e06ea" x="287.382344" y="295.117813" style="fill: #44bba4; stroke: #ffffff"/>
     </g>
    </g>
    <g id="text_20">
     <!-- Continuous -->
     <g transform="translate(299.982344 297.567813) scale(0.07 -0.07)">
      <defs>
       <path id="DejaVuSerif-43" d="M 4513 1234 
Q 4306 581 3820 245 
Q 3334 -91 2591 -91 
Q 2134 -91 1743 65 
Q 1353 222 1050 525 
Q 700 875 529 1320 
Q 359 1766 359 2328 
Q 359 3416 987 4083 
Q 1616 4750 2644 4750 
Q 3025 4750 3456 4650 
Q 3888 4550 4384 4347 
L 4384 3272 
L 4031 3272 
Q 3916 3859 3567 4137 
Q 3219 4416 2591 4416 
Q 1844 4416 1459 3886 
Q 1075 3356 1075 2328 
Q 1075 1303 1459 773 
Q 1844 244 2591 244 
Q 3113 244 3450 492 
Q 3788 741 3938 1234 
L 4513 1234 
z
" transform="scale(0.015625)"/>
       <path id="DejaVuSerif-69" d="M 622 4353 
Q 622 4497 726 4603 
Q 831 4709 978 4709 
Q 1122 4709 1226 4603 
Q 1331 4497 1331 4353 
Q 1331 4206 1228 4103 
Q 1125 4000 978 4000 
Q 831 4000 726 4103 
Q 622 4206 622 4353 
z
M 1356 331 
L 1900 331 
L 1900 0 
L 231 0 
L 231 331 
L 781 331 
L 781 2988 
L 231 2988 
L 231 3322 
L 1356 3322 
L 1356 331 
z
" transform="scale(0.015625)"/>
      </defs>
      <use xlink:href="#DejaVuSerif-43"/>
      <use xlink:href="#DejaVuSerif-6f" transform="translate(76.513672 0)"/>
      <use xlink:href="#DejaVuSerif-6e" transform="translate(136.71875 0)"/>
      <use xlink:href="#DejaVuSerif-74" transform="translate(201.123047 0)"/>
      <use xlink:href="#DejaVuSerif-69" transform="translate(241.308594 0)"/>
      <use xlink:href="#DejaVuSerif-6e" transform="translate(273.291016 0)"/>
      <use xlink:href="#DejaVuSerif-75" transform="translate(337.695312 0)"/>
      <use xlink:href="#DejaVuSerif-6f" transform="translate(402.099609 0)"/>
      <use xlink:href="#DejaVuSerif-75" transform="translate(462.304688 0)"/>
      <use xlink:href="#DejaVuSerif-73" transform="translate(526.708984 0)"/>
     </g>
    </g>
    <g id="line2d_19">
     <path d="M 280.382344 305.3925 
L 287.382344 305.3925 
L 294.382344 305.3925 
" style="fill: none; stroke: #ffffff; stroke-width: 1.5; stroke-linecap: square"/>
     <defs>
      <path id="m33163bf4a1" d="M 0 3.5 
C 0.928211 3.5 1.81853 3.131218 2.474874 2.474874 
C 3.131218 1.81853 3.5 0.928211 3.5 0 
C 3.5 -0.928211 3.131218 -1.81853 2.474874 -2.474874 
C 1.81853 -3.131218 0.928211 -3.5 0 -3.5 
C -0.928211 -3.5 -1.81853 -3.131218 -2.474874 -2.474874 
C -3.131218 -1.81853 -3.5 -0.928211 -3.5 0 
C -3.5 0.928211 -3.131218 1.81853 -2.474874 2.474874 
C -1.81853 3.131218 -0.928211 3.5 0 3.5 
z
" style="stroke: #ffffff"/>
     </defs>
     <g>
      <use xlink:href="#m33163bf4a1" x="287.382344" y="305.3925" style="fill: #e67e22; stroke: #ffffff"/>
     </g>
    </g>
    <g id="text_21">
     <!-- Complex -->
     <g transform="translate(299.982344 307.8425) scale(0.07 -0.07)">
      <use xlink:href="#DejaVuSerif-43"/>
      <use xlink:href="#DejaVuSerif-6f" transform="translate(76.513672 0)"/>
      <use xlink:href="#DejaVuSerif-6d" transform="translate(136.71875 0)"/>
      <use xlink:href="#DejaVuSerif-70" transform="translate(231.542969 0)"/>
      <use xlink:href="#DejaVuSerif-6c" transform="translate(295.556641 0)"/>
      <use xlink:href="#DejaVuSerif-65" transform="translate(327.539062 0)"/>
      <use xlink:href="#DejaVuSerif-78" transform="translate(386.71875 0)"/>
     </g>
    </g>
   </g>
   <g id="legend_2">
    <g id="line2d_20">
     <defs>
      <path id="m952a456dc7" d="M 0 3.5 
C 0.928211 3.5 1.81853 3.131218 2.474874 2.474874 
C 3.131218 1.81853 3.5 0.928211 3.5 0 
C 3.5 -0.928211 3.131218 -1.81853 2.474874 -2.474874 
C 1.81853 -3.131218 0.928211 -3.5 0 -3.5 
C -0.928211 -3.5 -1.81853 -3.131218 -2.474874 -2.474874 
C -3.131218 -1.81853 -3.5 -0.928211 -3.5 0 
C -3.5 0.928211 -3.131218 1.81853 -2.474874 2.474874 
C -1.81853 3.131218 -0.928211 3.5 0 3.5 
z
" style="stroke: #808080"/>
     </defs>
     <g>
      <use xlink:href="#m952a456dc7" x="66.004531" y="30.727187" style="fill: #808080; stroke: #808080"/>
     </g>
    </g>
    <g id="text_22">
     <!-- Sibling-anchor -->
     <g transform="translate(78.604531 33.177187) scale(0.07 -0.07)">
      <defs>
       <path id="DejaVuSerif-62" d="M 738 331 
L 738 4531 
L 184 4531 
L 184 4863 
L 1313 4863 
L 1313 2803 
Q 1481 3116 1742 3264 
Q 2003 3413 2388 3413 
Q 3000 3413 3387 2928 
Q 3775 2444 3775 1663 
Q 3775 881 3387 395 
Q 3000 -91 2388 -91 
Q 2003 -91 1742 57 
Q 1481 206 1313 519 
L 1313 0 
L 184 0 
L 184 331 
L 738 331 
z
M 1313 1497 
Q 1313 897 1542 583 
Q 1772 269 2209 269 
Q 2650 269 2876 622 
Q 3103 975 3103 1663 
Q 3103 2353 2876 2703 
Q 2650 3053 2209 3053 
Q 1772 3053 1542 2737 
Q 1313 2422 1313 1825 
L 1313 1497 
z
" transform="scale(0.015625)"/>
      </defs>
      <use xlink:href="#DejaVuSerif-53"/>
      <use xlink:href="#DejaVuSerif-69" transform="translate(68.505859 0)"/>
      <use xlink:href="#DejaVuSerif-62" transform="translate(100.488281 0)"/>
      <use xlink:href="#DejaVuSerif-6c" transform="translate(164.501953 0)"/>
      <use xlink:href="#DejaVuSerif-69" transform="translate(196.484375 0)"/>
      <use xlink:href="#DejaVuSerif-6e" transform="translate(228.466797 0)"/>
      <use xlink:href="#DejaVuSerif-67" transform="translate(292.871094 0)"/>
      <use xlink:href="#DejaVuSerif-2d" transform="translate(356.884766 0)"/>
      <use xlink:href="#DejaVuSerif-61" transform="translate(390.673828 0)"/>
      <use xlink:href="#DejaVuSerif-6e" transform="translate(450.292969 0)"/>
      <use xlink:href="#DejaVuSerif-63" transform="translate(514.697266 0)"/>
      <use xlink:href="#DejaVuSerif-68" transform="translate(570.703125 0)"/>
      <use xlink:href="#DejaVuSerif-6f" transform="translate(635.107422 0)"/>
      <use xlink:href="#DejaVuSerif-72" transform="translate(695.3125 0)"/>
     </g>
    </g>
    <g id="line2d_21">
     <defs>
      <path id="m1aae48bdf8" d="M -1.75 3.5 
L 0 1.75 
L 1.75 3.5 
L 3.5 1.75 
L 1.75 0 
L 3.5 -1.75 
L 1.75 -3.5 
L 0 -1.75 
L -1.75 -3.5 
L -3.5 -1.75 
L -1.75 0 
L -3.5 1.75 
z
" style="stroke: #808080; stroke-linejoin: miter"/>
     </defs>
     <g>
      <use xlink:href="#m1aae48bdf8" x="66.004531" y="41.101406" style="fill: #808080; stroke: #808080; stroke-linejoin: miter"/>
     </g>
    </g>
    <g id="text_23">
     <!-- Known-bad -->
     <g transform="translate(78.604531 43.551406) scale(0.07 -0.07)">
      <defs>
       <path id="DejaVuSerif-4b" d="M 353 0 
L 353 331 
L 947 331 
L 947 4331 
L 353 4331 
L 353 4666 
L 2175 4666 
L 2175 4331 
L 1581 4331 
L 1581 2566 
L 3591 4331 
L 3084 4331 
L 3084 4666 
L 4634 4666 
L 4634 4331 
L 4109 4331 
L 2106 2572 
L 4347 331 
L 4878 331 
L 4878 0 
L 3794 0 
L 1581 2216 
L 1581 331 
L 2175 331 
L 2175 0 
L 353 0 
z
" transform="scale(0.015625)"/>
      </defs>
      <use xlink:href="#DejaVuSerif-4b"/>
      <use xlink:href="#DejaVuSerif-6e" transform="translate(74.707031 0)"/>
      <use xlink:href="#DejaVuSerif-6f" transform="translate(139.111328 0)"/>
      <use xlink:href="#DejaVuSerif-77" transform="translate(199.316406 0)"/>
      <use xlink:href="#DejaVuSerif-6e" transform="translate(284.912109 0)"/>
      <use xlink:href="#DejaVuSerif-2d" transform="translate(349.316406 0)"/>
      <use xlink:href="#DejaVuSerif-62" transform="translate(383.105469 0)"/>
      <use xlink:href="#DejaVuSerif-61" transform="translate(447.119141 0)"/>
      <use xlink:href="#DejaVuSerif-64" transform="translate(506.738281 0)"/>
     </g>
    </g>
    <g id="line2d_22">
     <path d="M 59.004531 51.376094 
L 66.004531 51.376094 
L 73.004531 51.376094 
" style="fill: none; stroke-dasharray: 4.44,1.92; stroke-dashoffset: 0; stroke: #e74c3c; stroke-width: 1.2"/>
    </g>
    <g id="text_24">
     <!-- Alarm $\tau$ = 0.495 -->
     <g transform="translate(78.604531 53.826094) scale(0.07 -0.07)">
      <defs>
       <path id="DejaVuSans-Oblique-3c4" d="M 2103 638 
Q 2188 488 2525 488 
L 2800 488 
L 2706 0 
L 2363 0 
Q 1800 0 1600 300 
Q 1403 606 1534 1269 
L 1856 2925 
L 541 2925 
L 653 3500 
L 3881 3500 
L 3769 2925 
L 2444 2925 
L 2113 1234 
Q 2025 781 2103 638 
z
" transform="scale(0.015625)"/>
       <path id="DejaVuSerif-39" d="M 2994 2091 
Q 2784 1856 2512 1740 
Q 2241 1625 1900 1625 
Q 1206 1625 804 2044 
Q 403 2463 403 3188 
Q 403 3897 839 4323 
Q 1275 4750 2003 4750 
Q 2794 4750 3217 4161 
Q 3641 3572 3641 2478 
Q 3641 1253 3137 581 
Q 2634 -91 1722 -91 
Q 1475 -91 1203 -44 
Q 931 3 647 97 
L 647 872 
L 997 872 
Q 1038 556 1241 387 
Q 1444 219 1784 219 
Q 2391 219 2687 676 
Q 2984 1134 2994 2091 
z
M 1978 4441 
Q 1534 4441 1298 4117 
Q 1063 3794 1063 3188 
Q 1063 2581 1298 2256 
Q 1534 1931 1978 1931 
Q 2422 1931 2658 2245 
Q 2894 2559 2894 3150 
Q 2894 3772 2656 4106 
Q 2419 4441 1978 4441 
z
" transform="scale(0.015625)"/>
      </defs>
      <use xlink:href="#DejaVuSerif-41" transform="translate(0 0.015625)"/>
      <use xlink:href="#DejaVuSerif-6c" transform="translate(72.216797 0.015625)"/>
      <use xlink:href="#DejaVuSerif-61" transform="translate(104.199219 0.015625)"/>
      <use xlink:href="#DejaVuSerif-72" transform="translate(163.818359 0.015625)"/>
      <use xlink:href="#DejaVuSerif-6d" transform="translate(211.621094 0.015625)"/>
      <use xlink:href="#DejaVuSerif-20" transform="translate(306.445312 0.015625)"/>
      <use xlink:href="#DejaVuSans-Oblique-3c4" transform="translate(338.232422 0.015625)"/>
      <use xlink:href="#DejaVuSerif-20" transform="translate(398.4375 0.015625)"/>
      <use xlink:href="#DejaVuSerif-3d" transform="translate(430.224609 0.015625)"/>
      <use xlink:href="#DejaVuSerif-20" transform="translate(514.013672 0.015625)"/>
      <use xlink:href="#DejaVuSerif-30" transform="translate(545.800781 0.015625)"/>
      <use xlink:href="#DejaVuSerif-2e" transform="translate(609.423828 0.015625)"/>
      <use xlink:href="#DejaVuSerif-34" transform="translate(641.210938 0.015625)"/>
      <use xlink:href="#DejaVuSerif-39" transform="translate(704.833984 0.015625)"/>
      <use xlink:href="#DejaVuSerif-35" transform="translate(768.457031 0.015625)"/>
     </g>
    </g>
    <g id="patch_7">
     <path d="M 59.004531 65.221875 
L 73.004531 65.221875 
L 73.004531 60.321875 
L 59.004531 60.321875 
z
" style="fill: #e74c3c; opacity: 0.15"/>
    </g>
    <g id="text_25">
     <!-- Flagged ($\hat{y}\leq\tau$) -->
     <g transform="translate(78.604531 65.221875) scale(0.07 -0.07)">
      <defs>
       <path id="DejaVuSerif-46" d="M 353 0 
L 353 331 
L 947 331 
L 947 4331 
L 353 4331 
L 353 4666 
L 4172 4666 
L 4172 3628 
L 3788 3628 
L 3788 4281 
L 1581 4281 
L 1581 2719 
L 3175 2719 
L 3175 3303 
L 3559 3303 
L 3559 1753 
L 3175 1753 
L 3175 2338 
L 1581 2338 
L 1581 331 
L 2328 331 
L 2328 0 
L 353 0 
z
" transform="scale(0.015625)"/>
       <path id="DejaVuSerif-28" d="M 2041 -997 
Q 1281 -656 893 83 
Q 506 822 506 1931 
Q 506 3044 893 3783 
Q 1281 4522 2041 4863 
L 2041 4556 
Q 1559 4225 1350 3623 
Q 1141 3022 1141 1931 
Q 1141 844 1350 242 
Q 1559 -359 2041 -691 
L 2041 -997 
z
" transform="scale(0.015625)"/>
       <path id="DejaVuSans-2264" d="M 4684 3175 
L 1684 2309 
L 4684 1453 
L 4684 897 
L 678 2047 
L 678 2578 
L 4684 3725 
L 4684 3175 
z
M 678 531 
L 4684 531 
L 4684 0 
L 678 0 
L 678 531 
z
" transform="scale(0.015625)"/>
       <path id="DejaVuSerif-29" d="M 453 -997 
L 453 -691 
Q 934 -359 1145 242 
Q 1356 844 1356 1931 
Q 1356 3022 1145 3623 
Q 934 4225 453 4556 
L 453 4863 
Q 1216 4522 1603 3783 
Q 1991 3044 1991 1931 
Q 1991 822 1603 83 
Q 1216 -656 453 -997 
z
" transform="scale(0.015625)"/>
      </defs>
      <use xlink:href="#DejaVuSerif-46" transform="translate(0 0.828125)"/>
      <use xlink:href="#DejaVuSerif-6c" transform="translate(69.384766 0.828125)"/>
      <use xlink:href="#DejaVuSerif-61" transform="translate(101.367188 0.828125)"/>
      <use xlink:href="#DejaVuSerif-67" transform="translate(160.986328 0.828125)"/>
      <use xlink:href="#DejaVuSerif-67" transform="translate(225 0.828125)"/>
      <use xlink:href="#DejaVuSerif-65" transform="translate(289.013672 0.828125)"/>
      <use xlink:href="#DejaVuSerif-64" transform="translate(348.193359 0.828125)"/>
      <use xlink:href="#DejaVuSerif-20" transform="translate(412.207031 0.828125)"/>
      <use xlink:href="#DejaVuSerif-28" transform="translate(443.994141 0.828125)"/>
      <use xlink:href="#DejaVuSans-302" transform="translate(545.380859 12.015625)"/>
      <use xlink:href="#DejaVuSans-Oblique-79" transform="translate(483.007812 0.828125)"/>
      <use xlink:href="#DejaVuSans-2264" transform="translate(561.669922 0.828125)"/>
      <use xlink:href="#DejaVuSans-Oblique-3c4" transform="translate(664.941406 0.828125)"/>
      <use xlink:href="#DejaVuSerif-29" transform="translate(725.146484 0.828125)"/>
     </g>
    </g>
   </g>
  </g>
 </g>
 <defs>
  <clipPath id="pf0a48c02ad">
   <rect x="52.704531" y="21.558281" width="294.04" height="294.04"/>
  </clipPath>
 </defs>
</svg>
